<?xml version="1.0" encoding="utf-8"?>
<!-- Generator: Adobe Illustrator 17.1.0, SVG Export Plug-In . SVG Version: 6.00 Build 0)  -->
<!DOCTYPE svg PUBLIC "-//W3C//DTD SVG 1.1//EN" "http://www.w3.org/Graphics/SVG/1.1/DTD/svg11.dtd">
<svg version="1.1" id="Layer_1" xmlns="http://www.w3.org/2000/svg" xmlns:xlink="http://www.w3.org/1999/xlink" x="0px" y="0px"
	 viewBox="0 0 279 274.4" enable-background="new 0 0 279 274.4" xml:space="preserve">
<path fill="#FFFFFF" d="M274.7,39.7H238V28.1l20.9-21c1.6-1.6,1.6-4.2,0-5.9c-1.6-1.6-4.3-1.7-5.9-0.1l-23.6,23.5h-32.2L173.6,1.2
	c-1.6-1.6-4.2-1.6-5.9,0c-1.6,1.6-1.6,4.3,0,5.9L190,29.3v10.4H3.9C1.6,39.7,0,42,0,44.3v175.4c0,2.3,1.6,4,3.9,4H25v48.2
	c0,1.1,0.6,2,1.7,2.4c0.3,0.1,0.5,0.1,0.8,0.1c0.8,0,1.5-0.4,2-1.1l37.5-49.6h207.8c2.3,0,4.3-1.7,4.3-4V44.3
	C279,42,277,39.7,274.7,39.7z M214,199.2c0,1.4-1.1,2.5-2.5,2.5h-187c-1.4,0-2.5-1.1-2.5-2.5v-136c0-1.4,1.1-2.5,2.5-2.5h187
	c1.4,0,2.5,1.1,2.5,2.5V199.2z M255.9,186.7h-22c-1.9,0-3.5-1.6-3.5-3.5s1.6-3.5,3.5-3.5h22c1.9,0,3.5,1.6,3.5,3.5
	S257.8,186.7,255.9,186.7z M255.9,170.7h-22c-1.9,0-3.5-1.6-3.5-3.5s1.6-3.5,3.5-3.5h22c1.9,0,3.5,1.6,3.5,3.5
	S257.8,170.7,255.9,170.7z M255.9,155.7h-22c-1.9,0-3.5-1.6-3.5-3.5s1.6-3.5,3.5-3.5h22c1.9,0,3.5,1.6,3.5,3.5
	S257.8,155.7,255.9,155.7z M244.9,136.2c-8.4,0-15.2-6.8-15.2-15.2s6.8-15.2,15.2-15.2s15.2,6.8,15.2,15.2S253.3,136.2,244.9,136.2z
	 M244.9,92.9c-8.4,0-15.2-6.8-15.2-15.2s6.8-15.2,15.2-15.2s15.2,6.8,15.2,15.2S253.3,92.9,244.9,92.9z"/>
<rect x="15" y="47.7" opacity="0.6" fill="#FFFFFF" width="253" height="165"/>
</svg>
