<?xml version="1.0" encoding="utf-8"?>
<!-- Generator: Adobe Illustrator 17.1.0, SVG Export Plug-In . SVG Version: 6.00 Build 0)  -->
<!DOCTYPE svg PUBLIC "-//W3C//DTD SVG 1.1//EN" "http://www.w3.org/Graphics/SVG/1.1/DTD/svg11.dtd">
<svg version="1.1" id="Layer_1" xmlns="http://www.w3.org/2000/svg" xmlns:xlink="http://www.w3.org/1999/xlink" x="0px" y="0px"
	 viewBox="0 0 548.3 294" enable-background="new 0 0 548.3 294" xml:space="preserve">
<g>
	<path fill="#FFFFFF" d="M535.8,48.3H499V36.7l20.9-21c1.6-1.6,1.6-4.2,0-5.9c-1.6-1.6-4.3-1.7-5.9-0.1l-23.6,23.5h-32.2L434.7,9.7
		c-1.6-1.6-4.2-1.6-5.9,0c-1.6,1.6-1.6,4.3,0,5.9L451,37.9v10.4H264.9c-2.3,0-3.9,2.3-3.9,4.6v175.4c0,2.3,1.6,4,3.9,4H286v48.2
		c0,1.1,0.6,2,1.7,2.4c0.3,0.1,0.5,0.1,0.8,0.1c0.8,0,1.5-0.4,2-1.1l37.5-49.6h207.8c2.3,0,4.3-1.7,4.3-4V52.9
		C540,50.6,538.1,48.3,535.8,48.3z M475,207.8c0,1.4-1.1,2.5-2.5,2.5h-187c-1.4,0-2.5-1.1-2.5-2.5v-136c0-1.4,1.1-2.5,2.5-2.5h187
		c1.4,0,2.5,1.1,2.5,2.5V207.8z M516.9,195.3h-22c-1.9,0-3.5-1.6-3.5-3.5s1.6-3.5,3.5-3.5h22c1.9,0,3.5,1.6,3.5,3.5
		S518.9,195.3,516.9,195.3z M516.9,179.3h-22c-1.9,0-3.5-1.6-3.5-3.5s1.6-3.5,3.5-3.5h22c1.9,0,3.5,1.6,3.5,3.5
		S518.9,179.3,516.9,179.3z M516.9,164.3h-22c-1.9,0-3.5-1.6-3.5-3.5s1.6-3.5,3.5-3.5h22c1.9,0,3.5,1.6,3.5,3.5
		S518.9,164.3,516.9,164.3z M505.9,144.7c-8.4,0-15.2-6.8-15.2-15.2s6.8-15.2,15.2-15.2s15.2,6.8,15.2,15.2S514.3,144.7,505.9,144.7
		z M505.9,101.5c-8.4,0-15.2-6.8-15.2-15.2S497.6,71,505.9,71s15.2,6.8,15.2,15.2S514.3,101.5,505.9,101.5z"/>
	<rect x="276" y="56.3" opacity="0.6" fill="#FFFFFF" width="253" height="165"/>
</g>
<g>
	<path fill="#FFFFFF" d="M64.1,99.4c-5.2,0-7.8,1.8-7.8,5.5c0,1.7,0.6,2.9,1.8,3.6c1.2,0.7,3.9,1.4,8.2,2.2c4.3,0.7,7.3,1.8,9.1,3.1
		c1.8,1.3,2.7,3.9,2.7,7.6c0,3.7-1.2,6.4-3.6,8.1C72,131.1,68.6,132,64,132c-3,0-6.5-0.3-10.5-1l-2.2-0.4l0.3-4.7
		c5.5,0.8,9.6,1.2,12.4,1.2c2.8,0,4.9-0.4,6.4-1.3c1.5-0.9,2.2-2.4,2.2-4.5s-0.6-3.5-1.9-4.2c-1.2-0.7-4-1.5-8.2-2.1
		c-4.2-0.7-7.2-1.7-9-3c-1.8-1.3-2.7-3.7-2.7-7.2c0-3.5,1.2-6.1,3.7-7.8c2.5-1.7,5.6-2.5,9.3-2.5c2.9,0,6.6,0.3,11,1l2,0.4l-0.1,4.6
		C71.4,99.8,67.2,99.4,64.1,99.4z"/>
	<path fill="#FFFFFF" d="M95.3,131.3h-5.4V79.6h5.4v17.7c3.8-1.8,7.5-2.7,11.1-2.7c4.8,0,8,1.3,9.7,3.9c1.7,2.6,2.5,7.2,2.5,13.8v19
		h-5.4v-18.9c0-5-0.5-8.4-1.5-10.3c-1-1.8-3.1-2.8-6.2-2.8c-3,0-6,0.6-8.8,1.7l-1.4,0.5V131.3z"/>
	<path fill="#FFFFFF" d="M130.5,113.2c0-6.6,1.2-11.3,3.5-14.3c2.4-2.9,6.3-4.4,11.9-4.4c5.6,0,9.6,1.5,11.9,4.4
		c2.3,2.9,3.5,7.7,3.5,14.3c0,6.6-1.1,11.4-3.3,14.3c-2.2,3-6.2,4.5-12.1,4.5c-5.9,0-9.9-1.5-12.1-4.5
		C131.6,124.6,130.5,119.8,130.5,113.2z M136.1,113.1c0,5.3,0.6,8.9,1.9,11.1c1.3,2.1,3.9,3.2,8,3.2c4.1,0,6.7-1,8-3.1
		c1.2-2.1,1.9-5.8,1.9-11.1c0-5.3-0.7-8.9-2.1-10.9c-1.4-2-4-3-7.7-3c-3.8,0-6.4,1-7.8,3C136.8,104.2,136.1,107.8,136.1,113.1z"/>
	<path fill="#FFFFFF" d="M196.2,95.3h5.4v36h-5.4v-2.5c-3.6,2.2-7.2,3.2-10.7,3.2c-4.9,0-8.1-1.3-9.8-3.8c-1.6-2.5-2.4-7.2-2.4-14.1
		V95.3h5.4V114c0,5.2,0.5,8.7,1.4,10.5c0.9,1.8,3,2.7,6.2,2.7c1.6,0,3.2-0.2,4.8-0.7c1.6-0.5,2.9-0.9,3.7-1.3l1.3-0.6V95.3z"/>
	<path fill="#FFFFFF" d="M234.2,100h-11.4v17.2c0,4.1,0.3,6.8,0.9,8.1c0.6,1.3,2,1.9,4.3,1.9l6.4-0.4l0.4,4.5
		c-3.2,0.5-5.7,0.8-7.3,0.8c-3.7,0-6.3-0.9-7.8-2.7c-1.4-1.8-2.2-5.3-2.2-10.4V100h-5.1v-4.7h5.1v-11h5.3v11h11.4V100z"/>
	<path fill="#FFFFFF" d="M18,159.4c-5.2,0-7.8,1.8-7.8,5.5c0,1.7,0.6,2.9,1.8,3.6c1.2,0.7,3.9,1.4,8.2,2.2c4.3,0.7,7.3,1.8,9.1,3.1
		c1.8,1.3,2.7,3.9,2.7,7.6s-1.2,6.4-3.6,8.1c-2.4,1.7-5.8,2.6-10.4,2.6c-3,0-6.5-0.3-10.5-1l-2.2-0.4l0.3-4.7
		c5.5,0.8,9.6,1.2,12.4,1.2c2.8,0,4.9-0.4,6.4-1.3c1.5-0.9,2.2-2.4,2.2-4.5s-0.6-3.5-1.9-4.2c-1.2-0.7-4-1.5-8.2-2.1
		c-4.2-0.7-7.2-1.7-9-3c-1.8-1.3-2.7-3.7-2.7-7.2s1.2-6.1,3.7-7.8c2.5-1.7,5.6-2.5,9.3-2.5c2.9,0,6.6,0.3,11,1l2,0.4l-0.1,4.6
		C25.3,159.8,21.1,159.4,18,159.4z"/>
	<path fill="#FFFFFF" d="M62.4,160H51v17.2c0,4.1,0.3,6.8,0.9,8.1c0.6,1.3,2,1.9,4.3,1.9l6.4-0.4l0.4,4.5c-3.2,0.5-5.7,0.8-7.3,0.8
		c-3.7,0-6.3-0.9-7.8-2.7c-1.4-1.8-2.2-5.3-2.2-10.4V160h-5.1v-4.7h5.1v-11H51v11h11.4V160z"/>
	<path fill="#FFFFFF" d="M98.1,166.1v18.4c0.1,1.8,1.5,2.8,4.2,3.2L102,192c-3.8,0-6.6-1-8.6-2.9c-4.3,1.9-8.6,2.9-13,2.9
		c-3.3,0-5.8-0.9-7.6-2.8c-1.7-1.9-2.6-4.6-2.6-8.1c0-3.5,0.9-6.1,2.7-7.7c1.8-1.7,4.6-2.7,8.4-3.1l11.3-1.1v-3.1
		c0-2.4-0.5-4.2-1.6-5.3c-1.1-1.1-2.5-1.6-4.3-1.6c-3.8,0-7.8,0.2-12,0.7l-2.2,0.2l-0.2-4.1c5.3-1.1,10-1.6,14-1.6s7,0.9,8.9,2.8
		C97.1,159.2,98.1,162.2,98.1,166.1z M75.9,180.8c0,4.4,1.8,6.6,5.5,6.6c3.3,0,6.5-0.6,9.6-1.7l1.7-0.6v-11.9l-10.7,1
		c-2.2,0.2-3.7,0.8-4.7,1.9C76.4,177.3,75.9,178.8,75.9,180.8z"/>
	<path fill="#FFFFFF" d="M131,160h-11.4v17.2c0,4.1,0.3,6.8,0.9,8.1c0.6,1.3,2,1.9,4.3,1.9l6.4-0.4l0.4,4.5
		c-3.2,0.5-5.7,0.8-7.3,0.8c-3.7,0-6.3-0.9-7.8-2.7c-1.4-1.8-2.2-5.3-2.2-10.4V160h-5.1v-4.7h5.1v-11h5.3v11H131V160z"/>
	<path fill="#FFFFFF" d="M141.2,147.1v-6.3h5.4v6.3H141.2z M141.2,191.3v-36h5.4v36H141.2z"/>
	<path fill="#FFFFFF" d="M159,173.2c0-6.6,1.2-11.3,3.5-14.3c2.4-2.9,6.3-4.4,11.9-4.4c5.6,0,9.6,1.5,11.9,4.4
		c2.3,2.9,3.5,7.7,3.5,14.3c0,6.6-1.1,11.4-3.3,14.3c-2.2,3-6.2,4.5-12.1,4.5c-5.9,0-9.9-1.5-12.1-4.5
		C160.1,184.6,159,179.8,159,173.2z M164.5,173.1c0,5.3,0.6,8.9,1.9,11.1c1.3,2.1,3.9,3.2,8,3.2c4.1,0,6.7-1,8-3.1
		c1.2-2.1,1.9-5.8,1.9-11.1c0-5.3-0.7-8.9-2.1-10.9c-1.4-2-4-3-7.7-3c-3.8,0-6.4,1-7.8,3S164.5,167.8,164.5,173.1z"/>
	<path fill="#FFFFFF" d="M207.6,191.3h-5.4v-36h5.3v2.5c3.9-2.2,7.6-3.2,11.2-3.2c4.8,0,8,1.3,9.7,3.9c1.7,2.6,2.5,7.2,2.5,13.8v19
		h-5.3v-18.9c0-5-0.5-8.4-1.5-10.3c-1-1.8-3.1-2.8-6.3-2.8c-1.5,0-3.2,0.2-4.9,0.7c-1.7,0.5-3,0.9-3.9,1.3l-1.4,0.6V191.3z"/>
</g>
</svg>
